HIERARCHY
ROOT Hips
{
	OFFSET 0.000000 0.000000 0.000000
	CHANNELS 6 Xposition Yposition Zposition Xrotation Yrotation Zrotation
	JOINT LeftUpLeg_virtual
	{
		OFFSET 0.000000 0.000000 0.000000
		CHANNELS 3 Xrotation Yrotation Zrotation
		JOINT LeftUpLeg
		{
			OFFSET 15.427100 -6.655098 0.678600
			CHANNELS 3 Xrotation Yrotation Zrotation
			JOINT LeftLeg
			{
				OFFSET 4.081073 -39.591068 13.024000
				CHANNELS 3 Xrotation Yrotation Zrotation
				JOINT LeftFoot
				{
					OFFSET -4.081074 -37.707932 -15.979700
					CHANNELS 3 Xrotation Yrotation Zrotation
					JOINT LeftToeBase
					{
						OFFSET 5.346399 -15.068900 20.645000
						CHANNELS 3 Xrotation Yrotation Zrotation
						JOINT LeftToe_End
						{
							OFFSET 2.754700 0.931300 11.300900
							CHANNELS 3 Xrotation Yrotation Zrotation
							End Site
							{
								OFFSET 0 0 0
							}
						}
					}
				}
			}
		}
	}
	JOINT RightUpLeg_virtual
	{
		OFFSET 0.000000 0.000000 0.000000
		CHANNELS 3 Xrotation Yrotation Zrotation
		JOINT RightUpLeg
		{
			OFFSET -15.569500 -6.655098 0.678600
			CHANNELS 3 Xrotation Yrotation Zrotation
			JOINT RightLeg
			{
				OFFSET -4.081825 -39.591045 13.023800
				CHANNELS 3 Xrotation Yrotation Zrotation
				JOINT RightFoot
				{
					OFFSET 4.081824 -37.707954 -15.979600
					CHANNELS 3 Xrotation Yrotation Zrotation
					JOINT RightToeBase
					{
						OFFSET -5.346400 -15.068900 20.645000
						CHANNELS 3 Xrotation Yrotation Zrotation
						JOINT RightToe_End
						{
							OFFSET -2.754700 0.931300 11.300900
							CHANNELS 3 Xrotation Yrotation Zrotation
							End Site
							{
								OFFSET 0 0 0
							}
						}
					}
				}
			}
		}
	}
	JOINT Spine_virtual
	{
		OFFSET 0.000000 0.000000 0.000000
		CHANNELS 3 Xrotation Yrotation Zrotation
		JOINT Spine
		{
			OFFSET -0.279200 12.230698 -2.892100
			CHANNELS 3 Xrotation Yrotation Zrotation
			JOINT Spine1
			{
				OFFSET -0.232667 10.192268 -1.242267
				CHANNELS 3 Xrotation Yrotation Zrotation
				JOINT Spine1_split
				{
					OFFSET -0.232667 10.192268 -1.242267
					CHANNELS 3 Xrotation Yrotation Zrotation
					JOINT Spine2
					{
						OFFSET -0.232667 10.192268 -1.242267
						CHANNELS 3 Xrotation Yrotation Zrotation
						JOINT Neck_virtual
						{
							OFFSET 0.000000 0.000000 0.000000
							CHANNELS 3 Xrotation Yrotation Zrotation
							JOINT Neck
							{
								OFFSET -0.418800 17.814194 8.416900
								CHANNELS 3 Xrotation Yrotation Zrotation
								JOINT Head
								{
									OFFSET 0.000000 7.031097 3.806800
									CHANNELS 3 Xrotation Yrotation Zrotation
									JOINT HeadTop_End
									{
										OFFSET 0.000000 24.646606 12.978600
										CHANNELS 3 Xrotation Yrotation Zrotation
										End Site
										{
											OFFSET 0 0 0
										}
									}
								}
							}
						}
						JOINT LeftShoulder_virtual
						{
							OFFSET 0.000000 0.000000 0.000000
							CHANNELS 3 Xrotation Yrotation Zrotation
							JOINT LeftShoulder
							{
								OFFSET 8.476499 7.247704 -3.868750
								CHANNELS 3 Xrotation Yrotation Zrotation
								JOINT LeftShoulder_split
								{
									OFFSET 8.476499 7.247704 -3.868750
									CHANNELS 3 Xrotation Yrotation Zrotation
									JOINT LeftArm
									{
										OFFSET 9.308998 -2.777710 0.208600
										CHANNELS 3 Xrotation Yrotation Zrotation
										JOINT LeftForeArm
										{
											OFFSET 29.972298 0.000000 0.000000
											CHANNELS 3 Xrotation Yrotation Zrotation
											JOINT LeftHand
											{
												OFFSET 26.026505 0.000000 0.000000
												CHANNELS 3 Xrotation Yrotation Zrotation
												End Site
												{
													OFFSET 0 0 0
												}
											}
										}
									}
								}
							}
						}
						JOINT RightShoulder_virtual
						{
							OFFSET 0.000000 0.000000 0.000000
							CHANNELS 3 Xrotation Yrotation Zrotation
							JOINT RightShoulder
							{
								OFFSET -7.570500 7.247704 -3.868750
								CHANNELS 3 Xrotation Yrotation Zrotation
								JOINT RightShoulder_split
								{
									OFFSET -7.570500 7.247704 -3.868750
									CHANNELS 3 Xrotation Yrotation Zrotation
									JOINT RightArm
									{
										OFFSET -9.308998 -2.777710 0.208500
										CHANNELS 3 Xrotation Yrotation Zrotation
										JOINT RightForeArm
										{
											OFFSET -29.972300 0.000000 0.000000
											CHANNELS 3 Xrotation Yrotation Zrotation
											JOINT RightHand
											{
												OFFSET -26.026505 0.000000 0.000000
												CHANNELS 3 Xrotation Yrotation Zrotation
												End Site
												{
													OFFSET 0 0 0
												}
											}
										}
									}
								}
							}
						}
					}
				}
			}
		}
	}
}
MOTION
Frames: 5
Frame Time: 0.03333333
-3.825684 79.244888 -6.798538 0.000000 0.000000 0.000000 9.713099 -52.695698 11.831396 -33.343399 17.224957 28.569401 33.949568 -11.688449 -6.859585 -5.203450 -1.395776 -10.317550 0.169447 -1.932753 -2.555081 0.000000 0.000000 0.000000 8.697267 -50.509700 11.206499 -28.484283 -3.420366 -28.875881 43.323337 15.215589 -1.545144 -19.522810 -6.419251 31.537548 7.993508 7.959837 -9.875717 0.000000 0.000000 0.000000 5.908877 -45.839554 9.246669 5.259464 3.084374 -3.217198 10.938862 -4.429060 -5.400502 0.106707 -0.508066 0.061222 0.000000 0.000000 0.000000 15.055139 -1.929614 -5.335191 -14.506700 18.463009 5.391649 -22.494984 25.001966 3.329936 0.000000 0.000000 0.000000 14.079541 -4.059122 -6.279535 1.300712 -9.613735 -1.962015 -1.994083 -2.548230 -1.963995 -27.829119 3.023267 -30.882127 21.945526 -38.756392 12.702087 0.000000 0.000000 0.000000 15.821225 -2.912385 -5.112469 -8.762354 8.535231 6.454392 11.104785 6.212127 -1.761972 -47.824469 -29.092767 28.750985 -160.123663 74.578043 159.722334 0.000000 0.000000 0.000000 
-3.782706 79.242531 -6.535709 0.000000 0.000000 0.000000 9.658579 -52.736119 11.838989 -33.283573 17.267333 28.481170 34.021223 -11.712963 -6.886446 -5.240680 -1.479701 -10.270946 0.123574 -1.961301 -2.410024 0.000000 0.000000 0.000000 8.708263 -50.652136 11.256107 -28.417951 -3.394998 -28.968441 43.275300 15.249108 -1.492130 -19.536479 -6.599534 31.579899 7.980233 7.982646 -9.885504 0.000000 0.000000 0.000000 5.938245 -45.808177 9.181041 5.238955 3.114868 -3.194896 10.907458 -4.475481 -5.430771 0.101623 -0.565215 0.065226 0.000000 0.000000 0.000000 15.106874 -1.960529 -5.350872 -14.477884 18.380667 5.511431 -22.442822 24.942307 3.284687 0.000000 0.000000 0.000000 14.101013 -4.135145 -6.265458 1.321028 -9.786691 -1.825425 -2.114582 -2.577664 -2.196871 -28.001752 2.988052 -30.754839 21.553343 -38.692940 12.563010 0.000000 0.000000 0.000000 15.757639 -2.988420 -5.095739 -8.695377 8.530737 6.528592 11.412944 6.195052 -1.488623 -47.983957 -29.219071 28.712384 -160.007017 74.432997 159.471789 0.000000 0.000000 0.000000 
-3.654532 79.279495 -6.160637 0.000000 0.000000 0.000000 9.613151 -52.746686 11.841543 -33.084863 17.265123 28.239006 34.205512 -11.735402 -6.908633 -5.540998 -1.635187 -10.009605 -0.023655 -1.980072 -2.310459 0.000000 0.000000 0.000000 8.719475 -50.696813 11.276249 -28.272153 -3.535680 -29.218719 42.925338 15.325642 -1.427215 -19.331519 -6.790940 31.807112 7.995716 8.006659 -9.928665 0.000000 0.000000 0.000000 5.939671 -45.780214 9.098450 5.221215 3.193594 -3.188836 10.845121 -4.551088 -5.453463 0.098184 -0.608249 0.076062 0.000000 0.000000 0.000000 15.099409 -2.008447 -5.374320 -14.253702 18.323880 5.475856 -22.272644 24.617824 3.197904 0.000000 0.000000 0.000000 14.089193 -4.242003 -6.230790 1.316193 -9.981364 -1.780219 -2.286703 -2.529840 -2.531964 -28.373033 2.707452 -30.448498 21.108923 -38.139636 12.468293 0.000000 0.000000 0.000000 15.639499 -3.086127 -5.074426 -8.587313 8.666108 6.804393 11.602660 5.961643 -1.268664 -48.293604 -29.749405 28.589674 -159.909741 74.825610 158.943119 0.000000 0.000000 0.000000 
-3.452213 79.336845 -5.719158 0.000000 0.000000 0.000000 9.575674 -52.721250 11.827909 -32.778935 17.237109 27.864358 34.499869 -11.729682 -6.937363 -6.108937 -1.836395 -9.565409 -0.142809 -1.983151 -2.289325 0.000000 0.000000 0.000000 8.723501 -50.676636 11.262159 -28.086503 -3.813913 -29.604014 42.288536 15.438867 -1.354082 -18.957340 -6.982023 32.166233 8.067819 8.032540 -10.012042 0.000000 0.000000 0.000000 5.928172 -45.750888 9.005505 5.213642 3.324394 -3.198391 10.748907 -4.650530 -5.463900 0.096991 -0.628469 0.083734 0.000000 0.000000 0.000000 15.021345 -2.075686 -5.404510 -13.830285 18.266082 5.297105 -21.900274 23.978245 3.115658 0.000000 0.000000 0.000000 14.040711 -4.380847 -6.181932 1.285333 -10.199504 -1.887227 -2.472119 -2.348872 -2.941983 -28.826994 2.254777 -30.002863 20.689032 -37.287697 12.477785 0.000000 0.000000 0.000000 15.465862 -3.204821 -5.045481 -8.444855 8.936806 7.231481 11.749311 5.632767 -1.239702 -48.698180 -30.580038 28.403782 -159.850728 75.796412 158.162743 0.000000 0.000000 0.000000 
-3.195927 79.405235 -5.182362 0.000000 0.000000 0.000000 9.528017 -52.678295 11.783536 -32.401851 17.208464 27.378289 34.885529 -11.689400 -6.976860 -6.853343 -2.059889 -9.018125 -0.156231 -1.967576 -2.348437 0.000000 0.000000 0.000000 8.704718 -50.616869 11.210985 -27.905264 -4.191078 -30.089968 41.405232 15.605888 -1.280504 -18.449854 -7.149069 32.646204 8.156713 8.065667 -10.133004 0.000000 0.000000 0.000000 5.910527 -45.707547 8.902205 5.225901 3.513540 -3.229807 10.613042 -4.765585 -5.457133 0.099111 -0.612036 0.082096 0.000000 0.000000 0.000000 14.861443 -2.160650 -5.440056 -13.213535 18.200680 5.007452 -21.254644 22.944199 3.084291 0.000000 0.000000 0.000000 13.935874 -4.549725 -6.129664 1.214366 -10.476660 -2.183088 -2.665332 -2.029589 -3.312968 -29.283343 1.681362 -29.446831 20.354993 -36.428404 12.651102 0.000000 0.000000 0.000000 15.225084 -3.340556 -5.010282 -8.275545 9.305216 7.743134 11.933019 5.402775 -1.357661 -49.105645 -31.526541 28.237443 -159.955408 77.313309 157.280569 0.000000 0.000000 0.000000 
